<?xml version="1.0" encoding="UTF-8" standalone="no"?>
<svg xmlns:dc="http://purl.org/dc/elements/1.1/" xmlns:cc="http://creativecommons.org/ns#" xmlns:rdf="http://www.w3.org/1999/02/22-rdf-syntax-ns#" xmlns:svg="http://www.w3.org/2000/svg" xmlns="http://www.w3.org/2000/svg" xmlns:sodipodi="http://sodipodi.sourceforge.net/DTD/sodipodi-0.dtd" xmlns:inkscape="http://www.inkscape.org/namespaces/inkscape" width="100" height="100" id="svg7960" version="1.1" inkscape:version="0.48.4 r9939" sodipodi:docname="Paypal.svg">
  <defs id="defs7962">
    <clipPath clipPathUnits="userSpaceOnUse" id="clipPath3094-8">
      <path style="font-size:medium;font-style:normal;font-variant:normal;font-weight:normal;font-stretch:normal;text-indent:0;text-align:start;text-decoration:none;line-height:normal;letter-spacing:normal;word-spacing:normal;text-transform:none;direction:ltr;block-progression:tb;writing-mode:lr-tb;text-anchor:start;baseline-shift:baseline;color:#000000;fill:#ee0028;fill-opacity:1;stroke:none;stroke-width:1px;marker:none;visibility:visible;display:inline;overflow:visible;enable-background:accumulate;font-family:Sans;-inkscape-font-specification:Sans" d="m 1475.7812,430.15625 0,1 7.4688,0 0,-1 -7.4688,0 z m -1.6562,2.53125 0,1 10.7812,0 0,-1 -10.7812,0 z m -0.625,2.5 0,1 12.0625,0 0,-1 -12.0625,0 z m 0.625,2.53125 0,1 10.7812,0 0,-1 -10.7812,0 z m 0,2.53125 0,1 10.7812,0 0,-1 -10.7812,0 z" id="path3096-8" inkscape:connector-curvature="0"/>
    </clipPath>
    <clipPath clipPathUnits="userSpaceOnUse" id="clipPath3094-8-2">
      <path style="font-size:medium;font-style:normal;font-variant:normal;font-weight:normal;font-stretch:normal;text-indent:0;text-align:start;text-decoration:none;line-height:normal;letter-spacing:normal;word-spacing:normal;text-transform:none;direction:ltr;block-progression:tb;writing-mode:lr-tb;text-anchor:start;baseline-shift:baseline;color:#000000;fill:#ee0028;fill-opacity:1;stroke:none;stroke-width:1px;marker:none;visibility:visible;display:inline;overflow:visible;enable-background:accumulate;font-family:Sans;-inkscape-font-specification:Sans" d="m 1475.7812,430.15625 0,1 7.4688,0 0,-1 -7.4688,0 z m -1.6562,2.53125 0,1 10.7812,0 0,-1 -10.7812,0 z m -0.625,2.5 0,1 12.0625,0 0,-1 -12.0625,0 z m 0.625,2.53125 0,1 10.7812,0 0,-1 -10.7812,0 z m 0,2.53125 0,1 10.7812,0 0,-1 -10.7812,0 z" id="path3096-8-4" inkscape:connector-curvature="0"/>
    </clipPath>
  </defs>
  <sodipodi:namedview id="base" pagecolor="#ffffff" bordercolor="#666666" borderopacity="1.0" inkscape:pageopacity="0.0" inkscape:pageshadow="2" inkscape:zoom="1.979899" inkscape:cx="120.66649" inkscape:cy="91.541357" inkscape:document-units="px" inkscape:current-layer="g6818" showgrid="false" inkscape:window-width="667" inkscape:window-height="689" inkscape:window-x="683" inkscape:window-y="0" inkscape:window-maximized="0"/>
  
  <g inkscape:label="Layer 1" inkscape:groupmode="layer" id="layer1" transform="translate(0,-952.36218)">
    <g transform="translate(93.789483,666.2941)" id="g6818">
      <rect rx="3.5986683" ry="3.5986683" y="317.7287" x="-73.878845" height="40.714283" width="63.214283" id="rect6820" style="fill:#ffffff;fill-opacity:1;fill-rule:evenodd;stroke:#000000;stroke-width:0.80000001;stroke-linecap:round;stroke-linejoin:round;stroke-miterlimit:4;stroke-opacity:1;stroke-dasharray:none;stroke-dashoffset:0"/>
      <g style="font-size:16.09035492px;font-style:normal;font-weight:normal;line-height:125%;letter-spacing:0px;word-spacing:0px;fill:#000000;fill-opacity:1;stroke:none;font-family:Sans" id="text6822">
        <path d="m -57.956466,335.80709 c -0.193809,0.57092 -0.481312,1.09731 -0.862509,1.57918 -0.381221,0.48188 -0.836578,0.89697 -1.36607,1.24527 -0.529513,0.34832 -1.121787,0.61937 -1.776823,0.81316 -0.655054,0.1938 -1.357075,0.2907 -2.106065,0.2907 l -1.037074,0 -1.231034,3.6219 -3.394059,0 3.828629,-11.26639 4.619691,0 c 0.738512,10e-6 1.369742,0.0655 1.893691,0.19641 0.523926,0.13096 0.93067,0.3444 1.220231,0.64032 0.289536,0.29594 0.455016,0.67961 0.49644,1.15099 0.0414,0.47141 -0.05362,1.04756 -0.285048,1.72846 z m -3.630249,0.11785 c 0.09067,-0.26712 0.124388,-0.48972 0.101154,-0.66781 -0.02325,-0.17808 -0.08864,-0.32081 -0.19617,-0.42819 -0.107546,-0.10736 -0.248883,-0.18462 -0.424011,-0.23177 -0.175146,-0.0471 -0.370088,-0.0707 -0.584827,-0.0707 l -0.644243,0 -0.94525,2.78124 0.762092,0 c 0.272356,10e-6 0.513046,-0.034 0.722073,-0.10213 0.20901,-0.0681 0.392086,-0.16368 0.549226,-0.28677 0.157124,-0.12308 0.289459,-0.26974 0.397005,-0.43997 0.107529,-0.17022 0.195179,-0.35485 0.262951,-0.55389 z" style="font-style:oblique;font-variant:normal;font-weight:800;font-stretch:normal;text-align:start;line-height:125%;writing-mode:lr-tb;text-anchor:start;fill:#000000;font-family:Segoe WP Black;-inkscape-font-specification:'Segoe WP Black, Ultra-Bold Oblique'" id="path2992"/>
        <path d="m -55.014653,343.3573 0.416401,-1.22563 -0.03143,0 c -0.402657,0.44521 -0.849665,0.79352 -1.341026,1.04493 -0.49137,0.25141 -1.02251,0.37712 -1.593421,0.37712 -0.408546,0 -0.742861,-0.0642 -1.002946,-0.19249 -0.260088,-0.12833 -0.452739,-0.3051 -0.577953,-0.53032 -0.125215,-0.22523 -0.186432,-0.48842 -0.183648,-0.78959 0.0028,-0.30117 0.06293,-0.6246 0.180457,-0.9703 0.09984,-0.29331 0.238889,-0.58662 0.417137,-0.87994 0.178245,-0.29331 0.416153,-0.56567 0.713725,-0.81709 0.297567,-0.2514 0.667809,-0.47008 1.110729,-0.65602 0.442913,-0.18594 0.9788,-0.31819 1.607661,-0.39676 l 2.083968,-0.25927 c 0.04615,-0.13618 0.05523,-0.25926 0.02725,-0.36926 -0.028,-0.10999 -0.08627,-0.20427 -0.174809,-0.28284 -0.08856,-0.0786 -0.205589,-0.13879 -0.351093,-0.1807 -0.145517,-0.0419 -0.312552,-0.0628 -0.501105,-0.0629 -0.267131,1e-5 -0.540557,0.0223 -0.82028,0.0668 -0.279733,0.0445 -0.553814,0.10345 -0.822244,0.17677 -0.268439,0.0733 -0.526889,0.15583 -0.77535,0.24748 -0.248469,0.0917 -0.480403,0.18464 -0.695802,0.27891 l 0.739504,-2.17628 c 0.222273,-0.0838 0.481623,-0.16498 0.778051,-0.24356 0.296419,-0.0786 0.605036,-0.14664 0.925853,-0.20427 0.320807,-0.0576 0.639327,-0.10474 0.955562,-0.14142 0.316222,-0.0367 0.607898,-0.055 0.87503,-0.055 0.733277,1e-5 1.321541,0.0799 1.764793,0.23962 0.443235,0.15976 0.762901,0.39808 0.958999,0.71496 0.196078,0.31689 0.279063,0.71234 0.248957,1.18635 -0.03013,0.47402 -0.152887,1.02791 -0.368279,1.66167 l -1.508471,4.43899 z m 0.06727,-3.52762 c -0.270731,0.0419 -0.50512,0.12702 -0.703167,0.25534 -0.198057,0.12833 -0.336366,0.30772 -0.414928,0.53818 -0.03012,0.089 -0.04592,0.17808 -0.04739,0.26712 -0.0015,0.0891 0.01677,0.17023 0.05475,0.24356 0.03797,0.0733 0.100413,0.13225 0.187331,0.17677 0.08691,0.0445 0.203695,0.0668 0.350356,0.0668 0.167603,0 0.334556,-0.0327 0.50086,-0.0982 0.166293,-0.0655 0.32277,-0.15974 0.469433,-0.28283 0.146651,-0.12309 0.279477,-0.27105 0.398478,-0.4439 0.118988,-0.17285 0.214004,-0.36402 0.285048,-0.57354 l 0.1041,-0.3064 z" style="font-style:oblique;font-variant:normal;font-weight:800;font-stretch:normal;text-align:start;line-height:125%;writing-mode:lr-tb;text-anchor:start;fill:#000000;font-family:Segoe WP Black;-inkscape-font-specification:'Segoe WP Black, Ultra-Bold Oblique'" id="path2994"/>
        <path d="m -44.902203,343.58514 c -0.318854,0.46092 -0.660862,0.90482 -1.026025,1.3317 -0.365174,0.42687 -0.762261,0.8053 -1.19126,1.13528 -0.429008,0.32997 -0.895494,0.59317 -1.39946,0.78959 -0.503972,0.19641 -1.057126,0.29462 -1.659466,0.29462 -0.109993,0 -0.241837,-0.005 -0.395531,-0.0157 -0.153696,-0.0105 -0.315575,-0.0275 -0.485637,-0.0511 -0.170063,-0.0236 -0.340945,-0.0563 -0.512645,-0.0982 -0.171699,-0.0419 -0.330714,-0.0943 -0.477044,-0.15713 l 0.857354,-2.52197 c 0.06252,0.0629 0.142073,0.11785 0.238644,0.16499 0.09657,0.0471 0.198871,0.089 0.3069,0.1257 0.108027,0.0367 0.217856,0.0642 0.329487,0.0825 0.111628,0.0183 0.214582,0.0275 0.308863,0.0275 0.29855,0 0.57435,-0.0602 0.8274,-0.1807 0.253046,-0.12047 0.474668,-0.30641 0.664866,-0.55782 l 0.472871,-0.62853 -0.639333,-8.01375 3.700468,0 -0.344709,3.88117 c -0.0095,0.12047 -0.02038,0.2488 -0.03266,0.38498 -0.01228,0.13618 -0.02628,0.26974 -0.04198,0.40068 -0.01572,0.13095 -0.03307,0.25535 -0.05205,0.37319 -0.01899,0.11786 -0.04011,0.21868 -0.06334,0.30248 l 0.03143,0 c 0.08838,-0.18332 0.203611,-0.39937 0.345691,-0.64817 0.142068,-0.24879 0.297891,-0.5146 0.467469,-0.79744 l 2.290695,-3.89689 3.252641,0 z" style="font-style:oblique;font-variant:normal;font-weight:800;font-stretch:normal;text-align:start;line-height:125%;writing-mode:lr-tb;text-anchor:start;fill:#000000;font-family:Segoe WP Black;-inkscape-font-specification:'Segoe WP Black, Ultra-Bold Oblique'" id="path2996"/>
        <path d="m -29.138389,335.80709 c -0.193809,0.57092 -0.481312,1.09731 -0.862509,1.57918 -0.381221,0.48188 -0.836577,0.89697 -1.36607,1.24527 -0.529513,0.34832 -1.121787,0.61937 -1.776823,0.81316 -0.655054,0.1938 -1.357075,0.2907 -2.106065,0.2907 l -1.037074,0 -1.231033,3.6219 -3.39406,0 3.828629,-11.26639 4.619692,0 c 0.738511,10e-6 1.369741,0.0655 1.89369,0.19641 0.523926,0.13096 0.93067,0.3444 1.220231,0.64032 0.289536,0.29594 0.455016,0.67961 0.49644,1.15099 0.0414,0.47141 -0.05362,1.04756 -0.285048,1.72846 z m -3.630248,0.11785 c 0.09067,-0.26712 0.124387,-0.48972 0.101153,-0.66781 -0.02325,-0.17808 -0.08864,-0.32081 -0.196169,-0.42819 -0.107547,-0.10736 -0.248884,-0.18462 -0.424012,-0.23177 -0.175146,-0.0471 -0.370088,-0.0707 -0.584827,-0.0707 l -0.644243,0 -0.94525,2.78124 0.762092,0 c 0.272356,10e-6 0.513046,-0.034 0.722073,-0.10213 0.20901,-0.0681 0.392086,-0.16368 0.549227,-0.28677 0.157123,-0.12308 0.289458,-0.26974 0.397004,-0.43997 0.107529,-0.17022 0.195179,-0.35485 0.262952,-0.55389 z" style="fill:#000000;font-family:Segoe WP Black;-inkscape-font-specification:'Segoe WP Black, Ultra-Bold Oblique'" id="path2998"/>
        <path d="m -26.196576,343.3573 0.416401,-1.22563 -0.03143,0 c -0.402657,0.44521 -0.849666,0.79352 -1.341027,1.04493 -0.49137,0.25141 -1.02251,0.37712 -1.593421,0.37712 -0.408546,0 -0.742861,-0.0642 -1.002946,-0.19249 -0.260088,-0.12833 -0.452739,-0.3051 -0.577952,-0.53032 -0.125216,-0.22523 -0.186432,-0.48842 -0.183649,-0.78959 0.0028,-0.30117 0.06293,-0.6246 0.180457,-0.9703 0.09984,-0.29331 0.238889,-0.58662 0.417137,-0.87994 0.178245,-0.29331 0.416153,-0.56567 0.713725,-0.81709 0.297567,-0.2514 0.667809,-0.47008 1.110729,-0.65602 0.442913,-0.18594 0.9788,-0.31819 1.607661,-0.39676 l 2.083968,-0.25927 c 0.04615,-0.13618 0.05523,-0.25926 0.02725,-0.36926 -0.028,-0.10999 -0.08627,-0.20427 -0.17481,-0.28284 -0.08856,-0.0786 -0.205588,-0.13879 -0.351093,-0.1807 -0.145517,-0.0419 -0.312552,-0.0628 -0.501105,-0.0629 -0.267131,1e-5 -0.540557,0.0223 -0.82028,0.0668 -0.279733,0.0445 -0.553814,0.10345 -0.822244,0.17677 -0.268439,0.0733 -0.526889,0.15583 -0.77535,0.24748 -0.248469,0.0917 -0.480403,0.18464 -0.695802,0.27891 l 0.739504,-2.17628 c 0.222273,-0.0838 0.481623,-0.16498 0.778051,-0.24356 0.296419,-0.0786 0.605036,-0.14664 0.925853,-0.20427 0.320807,-0.0576 0.639327,-0.10474 0.955562,-0.14142 0.316222,-0.0367 0.607899,-0.055 0.875031,-0.055 0.733276,1e-5 1.32154,0.0799 1.764793,0.23962 0.443234,0.15976 0.7629,0.39808 0.958998,0.71496 0.196078,0.31689 0.279063,0.71234 0.248957,1.18635 -0.03013,0.47402 -0.152887,1.02791 -0.368279,1.66167 l -1.508471,4.43899 z m 0.06727,-3.52762 c -0.270732,0.0419 -0.50512,0.12702 -0.703168,0.25534 -0.198057,0.12833 -0.336366,0.30772 -0.414928,0.53818 -0.03012,0.089 -0.04592,0.17808 -0.04738,0.26712 -0.0015,0.0891 0.01677,0.17023 0.05475,0.24356 0.03797,0.0733 0.100413,0.13225 0.187331,0.17677 0.08691,0.0445 0.203695,0.0668 0.350356,0.0668 0.167603,0 0.334556,-0.0327 0.50086,-0.0982 0.166293,-0.0655 0.32277,-0.15974 0.469433,-0.28283 0.146651,-0.12309 0.279477,-0.27105 0.398478,-0.4439 0.118988,-0.17285 0.214004,-0.36402 0.285048,-0.57354 l 0.1041,-0.3064 z" style="fill:#000000;font-family:Segoe WP Black;-inkscape-font-specification:'Segoe WP Black, Ultra-Bold Oblique'" id="path3000"/>
        <path d="m -21.639737,343.3573 4.047631,-11.91063 3.34692,0 -4.047632,11.91063 z" style="fill:#000000;font-family:Segoe WP Black;-inkscape-font-specification:'Segoe WP Black, Ultra-Bold Oblique'" id="path3002"/>
      </g>
    </g>
  </g>

	
	
	<metadata>
		<rdf:RDF xmlns:rdf="http://www.w3.org/1999/02/22-rdf-syntax-ns#" xmlns:rdfs="http://www.w3.org/2000/01/rdf-schema#" xmlns:dc="http://purl.org/dc/elements/1.1/">
			<rdf:Description about="https://iconscout.com/legal#licenses" dc:title="Paypal, Credit, Debit, Bank, Transaction, Card" dc:description="Paypal, Credit, Debit, Bank, Transaction, Card" dc:publisher="Iconscout" dc:date="2016-12-14" dc:format="image/svg+xml" dc:language="en">
				<dc:creator>
					<rdf:Bag>
						<rdf:li>Dalpat Prajapati</rdf:li>
					</rdf:Bag>
				</dc:creator>
			</rdf:Description>
		</rdf:RDF>
    </metadata></svg>
